<svg id="svg" version="1.1" xmlns="http://www.w3.org/2000/svg" xmlns:xlink="http://www.w3.org/1999/xlink" width="50" height="30" viewBox="0, 0, 400,334.7826086956522"><g id="svgg"><path id="path0" d="M193.951 18.408 C 187.876 19.689,187.349 20.068,161.850 41.482 C 161.043 42.159,157.953 44.726,154.982 47.185 C 152.012 49.644,149.204 51.975,148.744 52.365 C 148.283 52.754,145.193 55.337,141.876 58.103 C 138.559 60.870,135.771 63.219,135.678 63.322 C 135.540 63.478,125.632 71.648,123.497 73.367 C 123.154 73.643,122.689 74.044,122.463 74.258 C 122.237 74.471,116.487 79.267,109.686 84.916 C 102.885 90.564,96.868 95.576,96.315 96.052 C 95.762 96.529,93.199 98.667,90.620 100.804 C 85.325 105.192,84.489 105.890,83.959 106.367 C 83.753 106.553,83.057 107.134,82.412 107.659 C 81.767 108.183,80.561 109.182,79.732 109.877 C 75.491 113.435,68.769 119.039,65.496 121.745 C 57.284 128.536,55.071 130.382,54.271 131.103 C 53.811 131.519,51.248 133.658,48.576 135.857 C 45.905 138.055,43.552 140.007,43.349 140.195 C 43.146 140.383,42.317 141.084,41.507 141.753 C 27.187 153.579,27.410 153.345,27.361 156.573 C 27.319 159.370,29.278 162.351,36.305 170.184 C 36.719 170.645,38.230 172.419,39.663 174.126 C 45.259 180.790,47.898 181.032,54.353 175.472 C 55.911 174.130,58.753 171.751,60.670 170.185 C 64.677 166.910,64.332 167.196,69.229 163.095 C 77.260 156.369,84.142 150.627,89.112 146.505 C 91.968 144.137,98.903 138.355,104.523 133.656 C 110.142 128.957,115.206 124.739,115.775 124.282 C 116.344 123.825,119.962 120.808,123.815 117.579 C 130.203 112.225,133.599 109.392,145.059 99.856 C 147.178 98.093,148.987 96.572,149.079 96.478 C 149.171 96.383,150.075 95.633,151.089 94.810 C 152.102 93.988,153.996 92.407,155.298 91.297 C 156.600 90.188,158.334 88.734,159.151 88.066 C 160.504 86.961,174.128 75.647,175.712 74.313 C 179.878 70.804,188.436 63.655,189.615 62.698 C 190.445 62.025,192.911 59.966,195.097 58.124 C 197.282 56.281,199.261 54.635,199.495 54.466 C 199.893 54.178,203.499 56.978,211.735 63.972 C 212.938 64.993,214.662 66.432,215.565 67.169 C 216.469 67.906,218.818 69.866,220.786 71.524 C 222.755 73.183,225.830 75.745,227.621 77.219 C 232.509 81.242,232.708 81.408,236.727 84.796 C 240.964 88.368,248.950 95.038,256.700 101.478 C 263.979 107.526,272.229 114.397,274.037 115.916 C 274.866 116.612,278.484 119.615,282.077 122.588 C 285.670 125.562,288.987 128.337,289.447 128.755 C 289.908 129.173,292.395 131.258,294.975 133.389 C 297.554 135.521,300.117 137.656,300.670 138.134 C 301.223 138.612,304.690 141.506,308.375 144.563 C 312.060 147.621,315.754 150.693,316.583 151.391 C 317.412 152.088,319.673 153.972,321.608 155.577 C 323.543 157.183,325.786 159.053,326.593 159.734 C 329.269 161.992,330.085 162.673,339.441 170.464 C 353.976 182.569,353.139 182.611,364.329 169.202 C 372.230 159.735,372.496 159.333,372.515 156.835 C 372.541 153.516,372.122 153.081,356.679 140.416 C 355.026 139.060,350.793 135.547,347.272 132.608 C 343.752 129.670,338.836 125.579,336.348 123.517 C 333.861 121.455,331.659 119.617,331.454 119.432 C 331.250 119.247,329.333 117.663,327.194 115.913 L 323.306 112.730 323.294 68.574 C 323.282 19.652,323.399 22.189,321.064 20.134 C 319.049 18.360,320.013 18.425,295.852 18.425 C 272.660 18.425,272.581 18.431,270.766 20.179 C 268.602 22.262,268.677 21.368,268.677 45.100 C 268.677 59.664,268.565 66.667,268.332 66.667 C 268.142 66.667,264.260 63.543,259.705 59.726 C 255.151 55.908,248.258 50.138,244.389 46.902 C 240.519 43.667,236.977 40.698,236.516 40.305 C 236.055 39.912,233.719 37.961,231.323 35.970 C 228.928 33.979,224.302 30.126,221.043 27.408 C 210.042 18.230,204.118 16.262,193.951 18.408 M191.349 80.318 C 186.743 84.141,180.964 88.920,178.506 90.937 C 169.950 97.957,163.276 103.472,159.296 106.810 C 158.928 107.120,157.044 108.653,155.110 110.219 C 153.175 111.784,150.685 113.819,149.575 114.740 C 148.465 115.662,146.822 117.018,145.923 117.755 C 145.025 118.492,144.123 119.250,143.920 119.440 C 143.717 119.629,142.647 120.511,141.541 121.398 C 140.436 122.286,138.853 123.584,138.023 124.281 C 136.476 125.583,130.598 130.424,124.794 135.176 C 122.993 136.650,121.257 138.082,120.935 138.358 C 119.898 139.250,116.260 142.259,113.233 144.730 C 112.588 145.256,108.819 148.355,104.858 151.615 C 100.896 154.876,96.991 158.089,96.179 158.755 C 95.367 159.421,93.558 160.923,92.159 162.091 C 90.759 163.260,89.012 164.710,88.275 165.315 C 87.538 165.919,85.413 167.677,83.554 169.220 C 81.694 170.764,79.400 172.630,78.455 173.367 L 76.738 174.707 76.811 228.643 L 76.884 282.580 77.799 284.442 C 78.842 286.565,81.279 289.305,83.250 290.568 C 86.298 292.524,84.766 292.462,130.556 292.462 L 172.529 292.462 172.529 251.254 L 172.529 210.046 199.916 210.132 L 227.303 210.218 227.388 251.347 L 227.473 292.477 270.277 292.386 L 313.080 292.295 315.275 291.214 C 317.987 289.879,320.944 286.879,322.208 284.181 L 323.116 282.245 323.205 228.605 L 323.295 174.965 321.698 173.675 C 320.819 172.965,320.025 172.304,319.933 172.206 C 319.841 172.107,319.012 171.433,318.090 170.706 C 317.169 169.980,315.800 168.849,315.048 168.194 C 314.296 167.538,313.391 166.774,313.038 166.495 C 310.601 164.572,291.498 148.839,290.117 147.617 C 289.413 146.994,279.455 138.810,272.694 133.296 C 270.471 131.484,269.333 130.532,267.695 129.116 C 266.564 128.138,251.001 115.350,248.779 113.573 C 248.207 113.115,246.295 111.532,244.532 110.055 C 242.768 108.579,239.473 105.863,237.210 104.020 C 232.134 99.887,226.791 95.482,224.791 93.781 C 223.961 93.077,221.391 90.946,219.079 89.047 C 216.767 87.148,211.673 82.959,207.760 79.738 C 203.847 76.517,200.437 73.766,200.184 73.624 C 199.866 73.446,197.107 75.537,191.349 80.318 " stroke="none" fill="#445ca4" fill-rule="evenodd"></path><path id="path1" d="M0.000 167.504 L 0.000 335.008 200.000 335.008 L 400.000 335.008 400.000 167.504 L 400.000 0.000 200.000 0.000 L 0.000 0.000 0.000 167.504 M208.219 18.597 C 212.678 20.118,214.922 21.552,220.603 26.511 C 221.156 26.994,223.492 28.943,225.796 30.843 C 228.099 32.743,230.360 34.637,230.821 35.050 C 231.281 35.464,233.693 37.486,236.181 39.544 C 242.156 44.486,243.012 45.200,247.219 48.744 C 249.188 50.402,251.529 52.362,252.422 53.099 C 253.314 53.836,257.148 57.037,260.942 60.212 C 264.735 63.387,267.952 65.987,268.090 65.991 C 268.229 65.994,268.342 56.419,268.342 44.713 C 268.342 21.738,268.317 22.086,270.116 20.156 C 272.125 18.003,271.029 18.090,296.050 18.096 L 318.760 18.101 320.087 18.853 C 320.816 19.266,321.871 20.256,322.432 21.053 L 323.451 22.503 323.538 67.496 L 323.625 112.489 326.849 115.122 C 329.653 117.412,331.706 119.117,336.224 122.906 C 336.800 123.390,337.931 124.332,338.737 124.999 C 339.542 125.666,345.251 130.402,351.424 135.523 C 357.596 140.643,364.209 146.127,366.118 147.710 C 372.301 152.833,372.864 153.590,372.864 156.784 C 372.864 159.159,372.202 160.504,369.408 163.798 C 366.379 167.370,361.862 172.755,360.972 173.858 C 356.741 179.095,353.585 180.624,349.903 179.224 C 349.141 178.935,338.504 170.467,337.521 169.368 C 337.337 169.162,333.719 166.138,329.481 162.648 C 325.243 159.158,321.700 156.212,321.608 156.102 C 321.516 155.992,319.255 154.100,316.583 151.898 C 313.911 149.695,311.364 147.594,310.923 147.229 C 310.482 146.865,309.050 145.657,307.740 144.547 C 306.431 143.436,303.174 140.726,300.503 138.523 C 297.831 136.321,295.570 134.432,295.477 134.325 C 295.385 134.218,289.430 129.245,282.245 123.274 C 275.059 117.303,269.104 112.334,269.012 112.232 C 268.920 112.130,266.658 110.244,263.987 108.041 C 261.315 105.839,258.752 103.706,258.291 103.301 C 257.831 102.896,256.022 101.380,254.271 99.931 C 248.136 94.854,243.045 90.620,242.674 90.286 C 242.213 89.871,241.234 89.054,238.859 87.102 C 237.850 86.273,236.647 85.273,236.184 84.880 C 235.722 84.487,234.213 83.224,232.831 82.073 C 227.551 77.675,217.079 68.961,210.764 63.712 C 207.147 60.705,203.469 57.627,202.590 56.872 C 199.889 54.549,199.890 54.550,198.969 55.382 C 197.998 56.260,172.664 77.455,170.866 78.894 C 168.452 80.826,153.206 93.517,149.554 96.635 C 148.249 97.749,146.816 98.961,146.370 99.330 C 145.924 99.698,143.826 101.429,141.708 103.176 C 137.068 107.002,137.190 106.900,133.808 109.766 C 132.319 111.028,126.371 115.980,120.590 120.771 C 114.809 125.561,109.383 130.084,108.533 130.821 C 107.683 131.558,105.055 133.744,102.692 135.678 C 100.330 137.613,98.004 139.552,97.524 139.988 C 97.043 140.423,94.696 142.383,92.308 144.343 C 89.920 146.303,87.357 148.443,86.613 149.098 C 85.868 149.754,84.506 150.885,83.585 151.611 C 82.663 152.337,81.759 153.098,81.575 153.301 C 81.390 153.505,79.054 155.462,76.382 157.650 C 73.710 159.839,71.358 161.783,71.155 161.971 C 70.952 162.158,70.051 162.915,69.153 163.652 C 68.255 164.389,66.989 165.456,66.339 166.023 C 65.690 166.590,62.973 168.842,60.302 171.027 C 57.630 173.211,55.369 175.087,55.276 175.195 C 51.125 180.065,45.423 180.949,41.876 177.271 C 39.569 174.879,28.154 161.104,27.536 159.966 C 25.665 156.520,27.076 153.119,32.053 149.079 C 33.983 147.513,36.115 145.753,36.792 145.169 C 37.469 144.586,41.039 141.598,44.724 138.530 C 48.409 135.463,51.725 132.695,52.094 132.381 C 52.462 132.066,54.950 130.001,57.621 127.792 C 60.293 125.582,62.856 123.445,63.317 123.042 C 63.777 122.640,67.094 119.875,70.687 116.899 C 74.280 113.924,77.973 110.850,78.894 110.069 C 81.699 107.691,86.873 103.380,87.973 102.503 C 88.959 101.716,101.661 91.137,104.858 88.440 C 105.687 87.740,107.948 85.856,109.883 84.252 C 111.817 82.648,115.416 79.656,117.879 77.603 C 125.992 70.841,127.169 69.863,128.823 68.509 C 129.724 67.772,132.430 65.511,134.836 63.484 C 137.242 61.457,140.413 58.824,141.883 57.632 C 143.353 56.440,144.631 55.381,144.724 55.279 C 144.816 55.177,145.796 54.344,146.901 53.426 C 148.007 52.509,148.987 51.679,149.079 51.581 C 149.171 51.483,150.452 50.428,151.926 49.236 C 153.400 48.044,156.038 45.855,157.789 44.371 C 159.539 42.887,163.610 39.504,166.834 36.854 C 170.059 34.203,172.772 31.944,172.864 31.835 C 173.074 31.586,182.720 23.598,184.087 22.542 C 184.640 22.115,185.272 21.619,185.492 21.440 C 190.046 17.733,201.490 16.301,208.219 18.597 M203.403 75.628 C 205.150 77.056,208.314 79.657,210.434 81.407 C 212.553 83.157,217.593 87.298,221.633 90.607 C 225.673 93.917,229.355 96.963,229.816 97.376 C 230.276 97.790,233.894 100.789,237.856 104.041 C 245.586 110.388,252.120 115.769,255.590 118.647 C 256.776 119.631,260.093 122.364,262.961 124.720 C 274.530 134.228,276.507 135.860,276.855 136.192 C 277.056 136.382,279.707 138.578,282.747 141.071 C 288.530 145.813,294.912 151.054,298.325 153.864 C 299.430 154.775,300.782 155.917,301.329 156.403 C 301.876 156.889,302.728 157.588,303.221 157.956 C 303.715 158.325,306.660 160.730,309.765 163.301 C 312.870 165.872,316.914 169.188,318.751 170.671 C 320.588 172.154,322.437 173.730,322.859 174.174 L 323.626 174.981 323.538 228.780 L 323.451 282.580 322.470 284.590 C 321.209 287.174,318.031 290.347,315.410 291.639 L 313.400 292.630 270.268 292.720 L 227.136 292.810 227.136 251.765 L 227.136 210.720 200.001 210.720 L 172.867 210.720 172.782 251.675 L 172.697 292.630 129.648 292.630 L 86.600 292.630 84.501 291.661 C 82.031 290.520,78.426 286.932,77.276 284.471 L 76.549 282.915 76.462 228.752 L 76.374 174.589 78.974 172.483 C 80.404 171.325,83.021 169.166,84.788 167.685 C 88.631 164.464,89.050 164.119,97.822 156.928 C 101.600 153.832,107.253 149.168,110.385 146.564 C 113.518 143.960,119.171 139.298,122.948 136.204 C 129.277 131.020,131.375 129.284,134.148 126.935 C 134.713 126.457,139.171 122.791,144.054 118.790 C 148.936 114.788,153.308 111.188,153.769 110.789 C 154.229 110.390,155.285 109.543,156.114 108.907 C 156.943 108.271,157.794 107.579,158.005 107.368 C 158.527 106.847,163.133 103.023,169.841 97.540 C 171.590 96.110,175.439 92.932,183.972 85.869 C 196.632 75.391,199.507 73.072,199.862 73.052 C 200.063 73.041,201.657 74.200,203.403 75.628 " stroke="none" fill="#f3f3f3" fill-rule="evenodd"></path><path id="path2" d="M270.163 20.184 L 269.179 21.273 270.268 20.289 C 270.867 19.748,271.357 19.258,271.357 19.200 C 271.357 18.941,271.080 19.169,270.163 20.184 M138.170 60.720 L 137.186 61.809 138.275 60.825 C 139.290 59.908,139.517 59.631,139.259 59.631 C 139.201 59.631,138.711 60.121,138.170 60.720 M215.378 67.442 C 215.898 68.094,218.425 70.157,218.425 69.930 C 218.425 69.851,217.634 69.126,216.667 68.320 C 215.699 67.513,215.120 67.118,215.378 67.442 M120.079 75.796 L 119.095 76.884 120.184 75.900 C 121.199 74.983,121.427 74.707,121.168 74.707 C 121.111 74.707,120.621 75.197,120.079 75.796 M172.341 77.471 L 171.357 78.559 172.446 77.576 C 173.044 77.034,173.534 76.544,173.534 76.487 C 173.534 76.228,173.258 76.456,172.341 77.471 M231.826 81.171 C 231.826 81.256,232.535 81.907,233.401 82.617 C 234.268 83.328,234.869 83.734,234.737 83.520 C 234.455 83.064,231.826 80.943,231.826 81.171 M186.076 84.171 L 185.092 85.260 186.181 84.276 C 186.780 83.735,187.270 83.245,187.270 83.187 C 187.270 82.928,186.993 83.156,186.076 84.171 M176.361 92.211 L 175.377 93.300 176.466 92.316 C 177.064 91.775,177.554 91.285,177.554 91.227 C 177.554 90.968,177.278 91.196,176.361 92.211 M227.637 95.760 C 228.002 96.191,228.604 96.700,228.974 96.889 C 229.686 97.254,229.582 97.142,227.976 95.807 C 227.008 95.004,226.996 95.003,227.637 95.760 M147.236 98.362 L 145.896 99.561 147.320 98.496 C 148.545 97.579,148.987 97.138,148.660 97.157 C 148.614 97.160,147.973 97.702,147.236 98.362 M92.565 98.684 L 91.625 99.546 92.714 98.789 C 93.312 98.372,93.802 97.984,93.802 97.927 C 93.802 97.663,93.432 97.889,92.565 98.684 M161.285 104.606 L 160.302 105.695 161.390 104.711 C 161.989 104.170,162.479 103.680,162.479 103.622 C 162.479 103.364,162.203 103.591,161.285 104.606 M132.140 110.972 L 131.156 112.060 132.245 111.076 C 133.259 110.159,133.487 109.883,133.229 109.883 C 133.171 109.883,132.681 110.373,132.140 110.972 M254.040 117.485 C 254.322 117.941,256.951 120.062,256.951 119.834 C 256.951 119.749,256.242 119.098,255.376 118.388 C 254.509 117.677,253.908 117.271,254.040 117.485 M50.586 133.697 L 49.079 135.063 50.670 133.823 C 52.065 132.736,52.478 132.326,52.178 132.329 C 52.131 132.330,51.415 132.945,50.586 133.697 M26.892 156.784 C 26.892 157.613,26.957 157.952,27.037 157.538 C 27.117 157.123,27.117 156.445,27.037 156.030 C 26.957 155.616,26.892 155.955,26.892 156.784 M87.425 165.518 L 86.265 166.548 87.521 165.646 C 88.631 164.849,88.992 164.489,88.681 164.489 C 88.628 164.489,88.062 164.952,87.425 165.518 M36.851 171.629 C 36.851 171.687,37.341 172.177,37.940 172.718 L 39.028 173.702 38.045 172.613 C 37.127 171.598,36.851 171.370,36.851 171.629 M41.876 177.387 C 42.501 178.032,43.088 178.559,43.180 178.559 C 43.272 178.559,42.836 178.032,42.211 177.387 C 41.586 176.742,40.999 176.214,40.907 176.214 C 40.815 176.214,41.251 176.742,41.876 177.387 M172.612 251.508 L 172.694 292.630 172.781 251.677 L 172.867 210.724 200.085 210.636 L 227.303 210.549 199.916 210.467 L 172.529 210.385 172.612 251.508 " stroke="none" fill="#b2bcd7" fill-rule="evenodd"></path><path id="path3" d="M285.200 18.342 C 291.248 18.393,301.047 18.393,306.976 18.342 C 312.905 18.290,307.956 18.248,295.980 18.248 C 284.003 18.248,279.152 18.290,285.200 18.342 M270.334 20.352 L 269.179 21.608 270.436 20.454 C 271.605 19.379,271.846 19.095,271.590 19.095 C 271.534 19.095,270.969 19.661,270.334 20.352 M215.745 22.867 C 215.745 22.946,216.537 23.671,217.504 24.478 C 218.472 25.285,219.051 25.679,218.793 25.355 C 218.273 24.703,215.745 22.640,215.745 22.867 M268.342 45.226 C 268.342 56.834,268.241 66.332,268.117 66.332 C 267.993 66.332,267.579 66.068,267.196 65.745 C 266.500 65.160,266.500 65.160,267.137 65.913 C 268.699 67.757,268.677 68.052,268.677 45.394 C 268.677 33.693,268.601 24.121,268.509 24.121 C 268.417 24.121,268.342 33.618,268.342 45.226 M227.471 32.601 C 227.471 32.658,227.961 33.148,228.559 33.689 L 229.648 34.673 228.664 33.585 C 227.747 32.570,227.471 32.342,227.471 32.601 M251.926 53.033 C 251.926 53.125,252.831 53.984,253.936 54.941 C 255.042 55.899,255.946 56.607,255.946 56.515 C 255.946 56.423,255.042 55.564,253.936 54.606 C 252.831 53.649,251.926 52.940,251.926 53.033 M209.380 62.081 C 209.380 62.139,209.870 62.629,210.469 63.170 L 211.558 64.154 210.574 63.065 C 209.657 62.050,209.380 61.823,209.380 62.081 M112.374 82.496 L 111.390 83.585 112.479 82.601 C 113.494 81.683,113.722 81.407,113.463 81.407 C 113.405 81.407,112.915 81.897,112.374 82.496 M186.076 84.506 L 185.092 85.595 186.181 84.611 C 186.780 84.070,187.270 83.580,187.270 83.522 C 187.270 83.263,186.993 83.491,186.076 84.506 M183.250 86.813 L 181.742 88.178 183.161 87.113 C 184.395 86.187,185.188 85.406,184.861 85.437 C 184.804 85.443,184.079 86.062,183.250 86.813 M156.942 89.975 L 155.276 91.509 157.035 90.090 C 158.613 88.818,158.993 88.442,158.701 88.442 C 158.650 88.442,157.858 89.132,156.942 89.975 M227.136 95.583 C 227.136 95.675,227.889 96.381,228.811 97.152 C 229.732 97.924,230.486 98.479,230.486 98.387 C 230.486 98.295,229.732 97.589,228.811 96.817 C 227.889 96.046,227.136 95.490,227.136 95.583 M168.991 98.576 L 168.007 99.665 169.095 98.681 C 169.694 98.140,170.184 97.650,170.184 97.592 C 170.184 97.333,169.908 97.561,168.991 98.576 M230.821 98.597 C 230.821 98.655,231.311 99.145,231.910 99.686 L 232.998 100.670 232.014 99.581 C 231.097 98.566,230.821 98.338,230.821 98.597 M161.285 104.941 L 160.302 106.030 161.390 105.046 C 161.989 104.505,162.479 104.015,162.479 103.957 C 162.479 103.699,162.203 103.926,161.285 104.941 M132.998 109.916 L 131.156 111.617 133.082 110.039 C 134.773 108.654,135.233 108.198,134.925 108.211 C 134.879 108.213,134.012 108.980,132.998 109.916 M245.896 110.993 C 245.896 111.050,246.386 111.540,246.985 112.081 L 248.074 113.065 247.090 111.977 C 246.173 110.962,245.896 110.734,245.896 110.993 M129.795 112.647 L 128.811 113.735 129.899 112.751 C 130.914 111.834,131.142 111.558,130.883 111.558 C 130.826 111.558,130.336 112.048,129.795 112.647 M252.261 116.347 C 252.261 116.432,252.970 117.083,253.837 117.793 C 254.704 118.503,255.305 118.910,255.172 118.696 C 254.891 118.240,252.261 116.118,252.261 116.347 M328.276 116.689 C 328.796 117.340,331.323 119.403,331.323 119.176 C 331.323 119.097,330.532 118.373,329.564 117.566 C 328.597 116.759,328.017 116.364,328.276 116.689 M68.153 119.347 L 67.169 120.436 68.258 119.452 C 69.273 118.534,69.501 118.258,69.242 118.258 C 69.184 118.258,68.694 118.748,68.153 119.347 M345.729 131.093 C 345.729 131.151,346.219 131.641,346.817 132.182 L 347.906 133.166 346.922 132.077 C 346.005 131.062,345.729 130.834,345.729 131.093 M104.858 133.381 L 103.015 135.083 104.773 133.675 C 106.314 132.441,107.130 131.635,106.804 131.669 C 106.747 131.675,105.871 132.445,104.858 133.381 M79.543 154.523 L 78.559 155.611 79.648 154.627 C 80.663 153.710,80.891 153.434,80.632 153.434 C 80.575 153.434,80.085 153.924,79.543 154.523 M71.503 161.223 L 70.519 162.312 71.608 161.328 C 72.207 160.786,72.697 160.296,72.697 160.239 C 72.697 159.980,72.420 160.208,71.503 161.223 M369.326 163.233 L 368.342 164.322 369.430 163.338 C 370.445 162.420,370.673 162.144,370.414 162.144 C 370.357 162.144,369.867 162.634,369.326 163.233 M314.908 167.944 C 314.908 168.036,315.662 168.743,316.583 169.514 C 317.504 170.286,318.258 170.841,318.258 170.749 C 318.258 170.657,317.504 169.951,316.583 169.179 C 315.662 168.408,314.908 167.852,314.908 167.944 M340.061 171.273 C 340.138 171.319,340.653 171.734,341.206 172.194 L 342.211 173.032 341.399 172.111 C 340.952 171.604,340.437 171.189,340.254 171.189 C 340.071 171.189,339.985 171.227,340.061 171.273 M37.186 171.629 C 37.186 171.687,37.676 172.177,38.275 172.718 L 39.363 173.702 38.380 172.613 C 37.462 171.598,37.186 171.370,37.186 171.629 M55.758 174.288 L 54.774 175.377 55.863 174.393 C 56.878 173.476,57.105 173.199,56.847 173.199 C 56.789 173.199,56.299 173.689,55.758 174.288 M53.248 176.466 L 52.094 177.722 53.350 176.567 C 54.519 175.493,54.760 175.209,54.505 175.209 C 54.449 175.209,53.883 175.775,53.248 176.466 M76.545 227.973 C 76.545 257.085,76.585 268.945,76.633 254.329 C 76.681 239.712,76.681 215.893,76.633 201.397 C 76.585 186.902,76.545 198.861,76.545 227.973 M41.876 177.052 C 42.501 177.697,43.088 178.224,43.180 178.224 C 43.272 178.224,42.836 177.697,42.211 177.052 C 41.586 176.407,40.999 175.879,40.907 175.879 C 40.815 175.879,41.251 176.407,41.876 177.052 M182.245 210.296 C 208.070 210.527,227.392 210.529,227.252 210.302 C 227.166 210.163,214.781 210.086,199.729 210.129 C 184.677 210.172,176.809 210.247,182.245 210.296 M319.083 288.526 L 317.420 290.285 319.179 288.622 C 320.147 287.708,320.938 286.917,320.938 286.864 C 320.938 286.614,320.628 286.892,319.083 288.526 M109.631 292.714 C 121.193 292.762,140.113 292.762,151.675 292.714 C 163.237 292.665,153.777 292.625,130.653 292.625 C 107.529 292.625,98.070 292.665,109.631 292.714 M248.325 292.714 C 259.887 292.762,278.807 292.762,290.369 292.714 C 301.930 292.665,292.471 292.625,269.347 292.625 C 246.223 292.625,236.763 292.665,248.325 292.714 " stroke="none" fill="#93a4cc" fill-rule="evenodd"></path><path id="path4" d="M198.252 17.668 C 199.226 17.736,200.733 17.735,201.603 17.666 C 202.472 17.597,201.675 17.542,199.832 17.543 C 197.990 17.544,197.279 17.600,198.252 17.668 M323.446 68.174 C 323.446 92.496,323.486 102.396,323.534 90.175 C 323.583 77.954,323.583 58.054,323.534 45.954 C 323.486 33.853,323.446 43.853,323.446 68.174 M372.607 156.784 C 372.607 157.429,372.676 157.693,372.760 157.370 C 372.845 157.048,372.845 156.520,372.760 156.198 C 372.676 155.875,372.607 156.139,372.607 156.784 M323.446 227.806 C 323.446 256.826,323.486 268.698,323.534 254.188 C 323.583 239.678,323.583 215.934,323.534 201.424 C 323.486 186.914,323.446 198.786,323.446 227.806 M357.600 177.303 L 356.616 178.392 357.705 177.408 C 358.720 176.491,358.948 176.214,358.689 176.214 C 358.631 176.214,358.142 176.704,357.600 177.303 M351.847 179.470 C 352.356 179.547,353.110 179.545,353.522 179.465 C 353.934 179.386,353.518 179.323,352.596 179.325 C 351.675 179.328,351.338 179.393,351.847 179.470 M227.298 251.424 C 227.298 273.903,227.338 283.049,227.387 271.750 C 227.436 260.450,227.436 242.058,227.387 230.879 C 227.338 219.699,227.298 228.945,227.298 251.424 M80.388 288.526 C 81.209 289.401,81.926 290.117,81.979 290.117 C 82.231 290.117,81.965 289.816,80.486 288.428 L 78.894 286.935 80.388 288.526 " stroke="none" fill="#9eaccc" fill-rule="evenodd"></path></g></svg>